<svg width="22" height="29" viewBox="0 0 22 29" fill="none" xmlns="http://www.w3.org/2000/svg">
<path fill-rule="evenodd" clip-rule="evenodd" d="M7.61907 1.49438C6.81426 1.77983 6.02583 2.51888 5.60188 3.38542C4.92765 4.76367 5.18612 6.48012 6.22847 7.54622L6.62343 7.95016L5.96409 8.36002C5.19444 8.83845 4.64287 9.60702 4.40158 10.5374C4.25463 11.1036 4.27583 11.7559 4.54746 15.0422C4.83894 18.5686 4.8941 18.9443 5.21793 19.606C5.41198 20.0027 5.81567 20.5368 6.11507 20.793C7.02509 21.5721 7.54392 21.6761 10.5181 21.6761H13.1526L14.4094 24.7043C15.1803 26.5621 15.7724 27.807 15.9411 27.9252C16.1499 28.0715 16.6942 28.1178 18.2053 28.1178C20.1385 28.1178 20.2039 28.1085 20.5239 27.7883C20.7051 27.6071 20.8534 27.3226 20.8534 27.1561C20.8534 26.7814 17.799 17.5555 17.5481 17.1728C17.1539 16.571 16.41 16.308 15.1022 16.308H13.8832L13.9659 13.7246C14.0351 11.5603 14.0131 11.0196 13.8301 10.3914C13.5669 9.48758 12.7853 8.54468 12.0096 8.19482L11.4646 7.94909L11.9088 7.33082C12.533 6.462 12.7174 5.92278 12.7174 4.96578C12.7174 2.39233 10.1042 0.613075 7.61907 1.49438ZM8.28069 3.62108C7.06482 4.14983 7.20358 6.13669 8.4832 6.51998C9.56406 6.8438 10.5182 6.12998 10.5193 4.99678C10.52 4.35731 10.1889 3.84345 9.62445 3.60766C9.08254 3.38113 8.82622 3.38381 8.28069 3.62108ZM7.34973 10.0592C6.72569 10.3308 6.49352 10.7516 6.49567 11.6073C6.49916 12.9956 7.00926 18.4331 7.16305 18.7203C7.2472 18.8777 7.50849 19.1237 7.74375 19.2672C8.1336 19.5048 8.4377 19.5279 11.1945 19.5283C13.6034 19.5287 14.2736 19.568 14.4928 19.7214C14.6615 19.8397 15.2536 21.0845 16.0244 22.9423L17.2812 25.9705H17.7818H18.2824L17.0406 22.2464L15.7987 18.5223L14.0193 18.4552C11.5125 18.3608 11.6683 18.6402 11.7705 14.4217C11.8454 11.333 11.8344 11.0998 11.5936 10.7041C11.1796 10.0232 10.7173 9.86563 9.15099 9.87154C8.29236 9.87476 7.60995 9.94589 7.34973 10.0592ZM1.27736 11.0367C0.975669 11.094 0.963457 11.1357 1.03888 11.8572C1.08249 12.2754 1.2736 14.55 1.46349 16.9119C1.66587 19.4293 1.89455 21.4819 2.016 21.8721C2.42062 23.1718 3.46726 24.232 4.78741 24.6792C5.31321 24.8575 6.04891 24.8969 8.84702 24.8969H12.2645V23.8233V22.7497H9.00498C3.89228 22.7497 4.13747 23.0368 3.61851 16.4422C3.42392 13.9695 3.23107 11.72 3.19 11.4432L3.11512 10.9399L2.35527 10.9582C1.93736 10.9682 1.45235 11.0035 1.27736 11.0367Z" fill="white" stroke="#656363" stroke-width="1.5"/>
</svg>
